<?xml version="1.0" encoding="utf-8"?>
<!-- Generator: Adobe Illustrator 25.0.0, SVG Export Plug-In . SVG Version: 6.00 Build 0)  -->
<svg version="1.1" id="Layer_1" xmlns="http://www.w3.org/2000/svg" xmlns:xlink="http://www.w3.org/1999/xlink" x="0px" y="0px"
	 viewBox="0 0 1449 313" style="enable-background:new 0 0 1449 313;" xml:space="preserve">
<g>
	<polygon points="576.8,243.6 618.4,243.6 618.4,228.2 576.8,228.2 576.8,203.1 623.5,203.1 623.5,187.4 558.3,187.4 558.3,289 
		627.1,289 627.1,273.3 576.8,273.3 	"/>
	<path d="M469.1,225.7c-0.9,11.4-2.6,21-5.3,28.6c-1.1,3.2-2.3,6.1-3.8,8.5c-1.5,2.3-3.2,4.3-5.1,6c-2,1.6-4.3,2.8-6.9,3.8
		c-2.6,1-5.7,1.7-9.2,2.1l2.1,16.1c7.4-0.2,13.7-1.6,18.8-4.1c5.2-2.5,9.5-5.9,12.9-10.1c3.4-4.3,6.1-9.3,8.1-15s3.4-11.7,4.4-18
		c1.1-6.5,1.8-13.1,2.2-19.9c0.4-6.9,0.7-13.7,1-20.4h27.1V289h18.6V187.4h-63.5C470.5,201.5,470,214.2,469.1,225.7z"/>
	<path d="M444.1,133c1.4-3.9,2.7-7.8,4.1-11.7c1.5-4,2.9-8.1,4.3-12.2h42.8c1.4,4.1,2.8,8.1,4.3,12c1.5,3.9,2.9,7.9,4.3,11.9h19.9
		c-3.8-10.8-7.5-20.9-11-30.1c-3.4-9.2-6.8-17.9-10.1-26.1c-3.2-8.2-6.5-16-9.7-23.5c-3.2-7.4-6.5-14.8-10-22h-17.4
		c-3.4,7.2-6.7,14.6-10,22c-3.2,7.4-6.5,15.2-9.8,23.5c-3.2,8.2-6.5,16.9-10,26.1c-3.4,9.2-7,19.2-10.8,30.1H444.1z M466.1,70
		c2.9-7.4,5.5-13.7,7.8-18.9c2.2,5,4.7,11.2,7.6,18.8c2.9,7.5,6,15.6,9.1,24.3h-33.4C460.3,85.5,463.2,77.4,466.1,70z"/>
	<path d="M704.6,258.9c-4.1-4.8-8.3-9.2-12.6-13.3c-4.2-4.2-8.4-7.9-12.5-11c3.7-3.6,7.5-7.4,11.3-11.4c3.9-4,7.8-8,11.6-12
		c3.8-4.1,7.5-8.2,11.1-12.2c3.6-4,7-7.9,10.3-11.6h-22.1c-2.5,2.8-5.4,6-8.5,9.5c-3.1,3.5-6.5,7.2-10,11
		c-3.4,3.7-6.9,7.4-10.4,11.1c-3.5,3.6-6.9,7-10.1,10.3v-41.9h-18.5V289h18.5v-45.6c3.8,2.6,7.7,5.8,11.6,9.4
		c3.9,3.6,7.7,7.4,11.3,11.4c3.7,4,7.2,8.2,10.6,12.5c3.3,4.3,6.3,8.4,8.8,12.3h21.8c-3.1-5.1-6.6-10.2-10.4-15.2
		C712.6,268.6,708.7,263.6,704.6,258.9z"/>
	<polygon points="380.7,133 399.3,133 399.3,47.4 430.5,47.4 430.5,31.4 349.5,31.4 349.5,47.4 380.7,47.4 	"/>
	<path d="M417.9,198.5c-4.4-4.5-9.6-7.9-15.7-10.1c-6-2.2-12.5-3.4-19.6-3.4c-7,0-13.2,0.8-18.6,2.3c-5.4,1.5-9.8,3.2-13.2,5.1
		l5.1,14.7c2.4-1.3,5.7-2.6,9.8-4c4.2-1.4,9.4-2.1,15.5-2.1c9.2,0,16.3,2.5,21.3,7.5c5.1,4.9,8.2,11.8,9.2,20.8h-43.2v15.7h43.7
		c-1.1,9.3-4.2,16.6-9.4,21.8c-5.2,5.2-12.4,7.8-21.6,7.8c-6.5,0-11.9-0.6-16-1.9c-4-1.4-7.2-2.6-9.5-3.8l-5,15.1
		c3.2,2,7.6,3.6,13,5c5.6,1.4,11.8,2.1,18.6,2.1c7.3,0,14-1.1,20.1-3.2c6.2-2.2,11.4-5.6,15.7-10c4.3-4.4,7.6-9.9,10-16.6
		c2.4-6.6,3.7-14.4,3.7-23.3c0-8.7-1.2-16.4-3.7-23C425.7,208.5,422.3,202.9,417.9,198.5z"/>
	<path d="M570.1,127c3.1-2.6,6-6,8.5-10c2.6-4.1,5.2-8.9,7.6-14.4c2.2-5.2,4.5-10.4,6.7-15.7c2.3-5.4,4.6-10.9,6.9-16.7
		c2.3-5.9,4.7-12,7-18.3c2.3-6.5,4.7-13.3,7-20.5H594c-2.8,9.8-5.9,19.6-9.1,29.5c-3.2,9.9-6.6,19.2-10.1,27.9
		c-2.5-5.1-5.1-10.2-7.6-15.2s-5-10.1-7.3-15c-2.2-4.9-4.4-9.6-6.5-14.2c-2-4.6-3.7-8.9-5.3-12.9h-20.7c2.1,4.9,4.5,10.3,7.2,16.1
		c2.7,5.9,5.7,12,8.9,18.5c3.2,6.4,6.7,12.9,10.4,19.6c3.8,6.7,7.8,13.4,11.9,20.1c-2.5,4.7-5.3,8.1-8.4,10.1
		c-2.9,2.1-6.6,3.1-11.1,3.1c-2.2,0-4.3-0.2-6.3-0.6c-2.1-0.5-4-1.1-5.9-1.9l-3.4,15.2c2,0.9,4.4,1.6,7.5,2.2
		c3.1,0.6,6.1,0.9,8.9,0.9c4.7,0,8.9-0.6,12.6-1.9C563.7,131.6,567.1,129.6,570.1,127z"/>
	<path d="M1307.1,258.9c-4.1-4.8-8.3-9.2-12.6-13.3c-4.2-4.2-8.3-7.9-12.5-11c3.7-3.6,7.5-7.4,11.3-11.4c3.9-4,7.8-8,11.6-12
		c3.8-4.1,7.5-8.2,11.1-12.2c3.6-4,7-7.9,10.3-11.6h-22.1c-2.5,2.8-5.4,6-8.5,9.5c-3.1,3.5-6.4,7.2-10,11
		c-3.4,3.7-6.9,7.4-10.4,11.1c-3.5,3.6-6.9,7-10.1,10.3v-41.9h-18.5V289h18.5v-45.6c3.8,2.6,7.7,5.8,11.6,9.4
		c3.9,3.6,7.7,7.4,11.3,11.4c3.7,4,7.2,8.2,10.6,12.5c3.3,4.3,6.2,8.4,8.8,12.3h21.8c-3.1-5.1-6.6-10.2-10.4-15.2
		C1315.1,268.6,1311.2,263.6,1307.1,258.9z"/>
	<path d="M1409.9,269.1c-2.2,1.2-5.4,2.4-9.5,3.8c-4.1,1.3-9.4,1.9-16,1.9c-5.5,0-10.2-0.9-14.1-2.6c-3.9-1.9-7.1-4.4-9.7-7.6
		c-2.5-3.3-4.4-7.2-5.7-11.7c-1.2-4.5-1.8-9.4-1.8-14.8c0-6.1,0.8-11.4,2.3-16c1.6-4.6,3.7-8.4,6.5-11.4c2.8-3,6.2-5.3,10-6.7
		c3.8-1.6,7.9-2.3,12.3-2.3c5.1,0,9.8,0.7,14.1,2.1c4.4,1.3,7.8,2.6,10.1,4.1l5.4-15.1c-0.7-0.4-1.9-1-3.5-1.9
		c-1.7-0.9-3.8-1.7-6.3-2.5c-2.5-0.8-5.5-1.5-8.9-2.1c-3.4-0.7-7.2-1-11.4-1c-6.9,0-13.4,1.2-19.5,3.5c-6.1,2.3-11.3,5.8-15.8,10.4
		c-4.5,4.5-8.1,10-10.7,16.6c-2.5,6.5-3.8,14.1-3.8,22.6c0,8.5,1.1,16,3.4,22.6c2.2,6.5,5.5,12.1,9.7,16.7
		c4.2,4.5,9.3,7.9,15.4,10.3c6.1,2.3,12.9,3.5,20.5,3.5c3.9,0,7.6-0.2,11-0.7c3.4-0.4,6.5-0.9,9.2-1.6c2.7-0.8,5.1-1.6,7-2.3
		c2.1-0.8,3.7-1.6,4.8-2.3L1409.9,269.1z"/>
	<polygon points="731.6,203.4 762.8,203.4 762.8,289 781.4,289 781.4,203.4 812.7,203.4 812.7,187.4 731.6,187.4 	"/>
	<path d="M1194.6,202.1c-4.5,5.6-9,11.4-13.6,17.4c-4.5,6.1-8.9,12.2-13.2,18.3c-4.2,6.1-8,11.7-11.3,17v-67.4h-18.3V289h15.7
		c3.3-5.6,7-11.5,11.1-17.9c4.1-6.5,8.4-12.9,12.8-19.4c4.4-6.5,8.8-12.9,13.3-18.9c4.6-6.2,8.9-11.7,13.1-16.6V289h18.2V187.4
		h-15.1C1203.3,191.5,1199.1,196.4,1194.6,202.1z"/>
	<path d="M889.3,194.4c-7.8-5.4-19.1-8.1-33.9-8.1c-4.4,0-9.2,0.2-14.5,0.6c-5.2,0.3-9.9,0.9-14.2,1.9V289h18.5v-35.8h9.2
		c7.4,0,14-0.6,19.8-1.9c5.8-1.3,10.7-3.2,14.7-5.9c4-2.7,7-6.2,9.1-10.4c2.2-4.3,3.2-9.4,3.2-15.4
		C901.2,208.2,897.3,199.8,889.3,194.4z M874.7,233.7c-4.8,2.4-11.6,3.7-20.5,3.7h-8.9v-34.6c3-0.3,6.9-0.4,11.6-0.4
		c3.5,0,6.8,0.3,9.8,0.9c3.1,0.5,5.8,1.4,8.1,2.6c2.2,1.3,4,3,5.3,5.3c1.3,2.2,1.9,5,1.9,8.4C881.9,226.4,879.5,231.2,874.7,233.7z"
		/>
	<path d="M997.8,198.5c-4.4-4.5-9.6-7.9-15.5-10.1c-6-2.2-12.3-3.4-18.9-3.4c-6.6,0-13,1.1-18.9,3.4c-6,2.2-11.2,5.6-15.8,10.1
		c-4.5,4.5-8.1,10.1-10.7,16.7c-2.6,6.5-4,14.2-4,22.9c0,8.7,1.3,16.4,4,23c2.6,6.6,6.2,12.2,10.6,16.7c4.5,4.4,9.7,7.7,15.7,10
		c6.1,2.2,12.5,3.4,19.2,3.4c6.7,0,13.1-1.1,19.1-3.4c6-2.2,11.1-5.6,15.5-10c4.5-4.5,8-10.1,10.6-16.7c2.6-6.6,4-14.3,4-23
		c0-8.7-1.3-16.3-4-22.9C1005.9,208.6,1002.3,203,997.8,198.5z M991.1,253.4c-1.4,4.5-3.4,8.4-6,11.6c-2.5,3.1-5.7,5.6-9.4,7.3
		c-3.7,1.8-7.9,2.6-12.5,2.6c-4.7,0-8.9-0.9-12.6-2.6c-3.7-1.8-6.9-4.2-9.5-7.3c-2.5-3.2-4.5-7.1-5.9-11.6
		c-1.4-4.6-2.1-9.7-2.1-15.2c0-5.6,0.7-10.6,2.1-15.1c1.4-4.5,3.3-8.4,5.9-11.6c2.6-3.2,5.8-5.7,9.5-7.5c3.7-1.8,7.9-2.6,12.6-2.6
		c4.6,0,8.7,0.9,12.5,2.6c3.7,1.8,6.8,4.3,9.4,7.5c2.6,3.1,4.6,7,6,11.6c1.4,4.5,2.1,9.5,2.1,15.1
		C993.2,243.7,992.5,248.8,991.1,253.4z"/>
	<polygon points="1095.4,228 1051.2,228 1051.2,187.4 1032.8,187.4 1032.8,289 1051.2,289 1051.2,244 1095.4,244 1095.4,289 
		1113.8,289 1113.8,187.4 1095.4,187.4 	"/>
</g>
<path d="M225,6.8H82.7C72,6.8,61.3,8.9,51.4,13c-9.9,4.1-18.9,10.1-26.5,17.7c-7.6,7.6-13.6,16.6-17.7,26.5
	C3,67.2,0.9,77.9,0.9,88.6v142.2c0,10.7,2.1,21.4,6.2,31.3c4.1,9.9,10.1,18.9,17.7,26.5c7.6,7.6,16.6,13.6,26.5,17.7
	c9.9,4.1,20.6,6.2,31.3,6.2H225c10.7,0,21.4-2.1,31.3-6.2c9.9-4.1,18.9-10.1,26.5-17.7c7.6-7.6,13.6-16.6,17.7-26.5
	c4.1-9.9,6.2-20.6,6.2-31.3V88.6c0-10.7-2.1-21.4-6.2-31.3c-4.1-9.9-10.1-18.9-17.7-26.5c-7.6-7.6-16.6-13.6-26.5-17.7
	C246.3,8.9,235.7,6.8,225,6.8z M230.3,198.7h-19.1c-1.5-2.5-3.8-4.4-6.5-5.4s-5.7-1.2-8.5-0.4c-2.8,0.8-5.2,2.5-7,4.8
	c-1.7,2.3-2.7,5.1-2.7,8c0,2.9,0.9,5.7,2.7,8c1.7,2.3,4.2,4,7,4.8c2.8,0.8,5.8,0.7,8.5-0.4c2.7-1,5-2.9,6.5-5.4h19.1v17.1
	c0,1.7-0.7,3.3-1.8,4.5c-1.2,1.2-2.8,1.8-4.5,1.8h-81.2v-17.3l62.1-66.6v-19.4c2.5-1.5,4.4-3.8,5.4-6.5c1-2.7,1.2-5.7,0.4-8.5
	c-0.8-2.8-2.5-5.3-4.8-7c-2.3-1.8-5.1-2.7-8-2.7s-5.7,0.9-8.1,2.7c-2.3,1.8-4,4.2-4.8,7s-0.7,5.8,0.4,8.5c1,2.7,2.9,5,5.4,6.5v13.8
	l-62.1,66.6v22.9h-15.7V206c2.5-1.5,4.4-3.8,5.4-6.5c1-2.7,1.2-5.7,0.4-8.5c-0.8-2.8-2.5-5.2-4.8-7c-2.3-1.7-5.1-2.7-8-2.7
	c-2.9,0-5.7,0.9-8,2.7c-2.3,1.7-4,4.2-4.8,7c-0.8,2.8-0.7,5.8,0.4,8.5c1,2.7,2.9,5,5.4,6.5v30.2H83.7c-0.8,0-1.6-0.2-2.4-0.5
	c-0.8-0.3-1.5-0.8-2-1.4c-0.6-0.6-1-1.3-1.4-2c-0.3-0.8-0.5-1.6-0.5-2.4v-85.7h23.5l7.7,8.6c-0.3,1.2-0.5,2.3-0.5,3.5
	c0,2.6,0.8,5.2,2.2,7.4c1.5,2.2,3.6,3.9,6,4.9c2.4,1,5.1,1.3,7.7,0.8c2.6-0.5,5-1.8,6.8-3.7c1.9-1.9,3.1-4.2,3.7-6.8
	c0.5-2.6,0.3-5.3-0.8-7.7c-1-2.4-2.7-4.5-4.9-6c-2.2-1.5-4.8-2.3-7.4-2.3c-0.9,0-1.7,0.1-2.5,0.2l-11.8-13.1H77.4v-17.9H122
	l12.1,10.9c-0.1,0.7-0.2,1.5-0.2,2.2c0,2.8,0.9,5.5,2.5,7.8s4,4,6.6,4.9c2.7,0.9,5.5,0.9,8.2,0.1c2.7-0.8,5-2.5,6.7-4.8
	c1.7-2.3,2.6-5,2.6-7.8c0-2.8-0.8-5.6-2.4-7.9c-1.6-2.3-3.9-4-6.6-5c-2.7-0.9-5.5-1-8.2-0.2l-16.1-14.4H77.4v-8.6
	c0-1.7,0.7-3.3,1.8-4.5c1.2-1.2,2.8-1.8,4.5-1.8H224c1.7,0,3.3,0.7,4.5,1.8c1.2,1.2,1.8,2.8,1.8,4.5V198.7z"/>
</svg>
