<?xml version="1.0" encoding="utf-8"?>
<!-- Generator: Adobe Illustrator 25.0.0, SVG Export Plug-In . SVG Version: 6.00 Build 0)  -->
<svg version="1.1" id="Layer_1" xmlns="http://www.w3.org/2000/svg" xmlns:xlink="http://www.w3.org/1999/xlink" x="0px" y="0px"
	 viewBox="0 0 1447 390" style="enable-background:new 0 0 1447 390;" xml:space="preserve">
<style type="text/css">
	.st0{fill:url(#SVGID_1_);}
	.st1{fill:url(#SVGID_2_);}
	.st2{fill:url(#SVGID_3_);}
	.st3{fill:url(#SVGID_4_);}
</style>
<g>
	<path d="M369.3,198.2c-7.6-4.6-15.6-7.2-23.8-7.6v-2.3c7.6-1.8,14.5-4.8,20.7-9c6.2-4.2,11.1-9.6,14.7-16.3
		c3.7-6.8,5.5-14.9,5.5-24.4c0-11.6-2.8-21.9-8.4-31c-5.6-9.1-14-16.3-25.2-21.6c-11.2-5.3-25.2-8-42.1-8H221v233.7h94.6
		c17.9,0,32.7-2.8,44.5-8.3c11.8-5.6,20.6-13.1,26.5-22.7c5.9-9.7,8.8-20.5,8.8-32.6c0-11.9-2.4-22-7.3-30.4
		C383.2,209.3,376.9,202.8,369.3,198.2z M263.4,112.9h42.8c12.5,0,21.9,2.9,28.2,8.8c6.4,5.9,9.6,13.3,9.6,22.4
		c0,6.8-1.7,12.8-5.1,17.8c-3.3,4.9-7.9,8.8-13.8,11.5c-5.9,2.7-12.4,4-19.7,4h-41.9V112.9z M342.1,267.5
		c-6.8,5.9-17.8,8.8-33.2,8.8h-45.5v-68.5H310c8.7,0,16.3,1.6,22.6,4.9c6.3,3.2,11.2,7.6,14.6,13.2c3.4,5.6,5.1,11.8,5.1,18.7
		C352.4,254,349,261.6,342.1,267.5z"/>
	<polygon points="470.2,255.7 470.2,136.4 430.4,136.4 430.4,311.7 473,311.7 542.9,192.2 542.9,311.7 582.8,311.7 582.8,136.4 
		540.4,136.4 	"/>
	<polygon points="733,206.9 665.1,206.9 665.1,136.4 625.2,136.4 625.2,311.7 665.1,311.7 665.1,240.8 733,240.8 733,311.7 
		772.7,311.7 772.7,136.4 733,136.4 	"/>
	<path d="M967,136.4H840.3l-5,61.4c-0.8,9.8-1.8,19-2.9,27.5c-1.1,8.4-2.4,16.1-4.1,22.9c-1.6,6.8-3.7,12.7-6.2,17.7
		c-2.5,4.9-5.6,8.9-9.4,11.8h-13.9v84.9h40.6v-50.9h114.7v50.9h39.9v-84.9H967V136.4z M927.5,277.7h-72.2
		c5.6-8.2,9.6-18.9,12.1-32.2c2.5-13.2,4.5-29.1,6-47.7l2.7-28.1h51.3V277.7z"/>
	<polygon points="1344.5,184.5 1436.8,78 1384.7,78 1301.6,174.1 1291,174.1 1291,78 1248.7,78 1248.7,311.7 1291,311.7 1291,209.5 
		1311.8,209.5 1388.7,311.7 1440.8,311.7 	"/>
	<path d="M1163.3,88.2c-14.3-9-31.2-13.5-50.8-13.5c-19.2,0-35.4,3.5-48.4,10.6c-13,7-23.1,16.5-30.2,28.6
		c-7.2,12.1-11.5,25.7-13,41h42.6c1-9.4,3.2-17.4,6.6-24.1c3.4-6.8,8.5-11.9,15.4-15.5c6.9-3.6,15.9-5.4,27-5.4
		c11.8,0,21.7,3,29.7,8.9c8,5.9,14,14.3,18,25.4c3.6,10.1,5.6,22,6,35.7h-80v34.8h79.8c-0.6,11-2.3,21-5.1,29.8
		c-3.6,11.2-9.2,19.9-17,26.2c-7.8,6.2-17.9,9.4-30.3,9.4c-16.1,0-28.2-3.7-36.1-11.2c-7.8-7.5-12.4-18.4-13.8-32.9h-42.6
		c1.3,15.3,5.6,28.9,13,40.7c7.4,11.8,17.7,21.1,31,27.8c13.3,6.7,29.4,10,48.4,10c19.5,0,36.4-4.4,50.5-13.2
		c14.2-8.9,25.1-21.5,32.8-37.8c7.8-16.4,11.6-35.6,11.6-57.8v-21.7c0-22.2-4-41.5-11.9-58C1188.8,109.9,1177.7,97.2,1163.3,88.2z"
		/>
</g>
<linearGradient id="SVGID_1_" gradientUnits="userSpaceOnUse" x1="47.1568" y1="322.8695" x2="47.1568" y2="200.8068" gradientTransform="matrix(1 0 0 -1 0 389.8898)">
	<stop  offset="0" style="stop-color:#A559A3"/>
	<stop  offset="1" style="stop-color:#BE5FA5"/>
</linearGradient>
<path class="st0" d="M23.8,273.5l-23,13.3V77.4l69.7-40.2l23,13.3L23.8,90.7V273.5z"/>
<linearGradient id="SVGID_2_" gradientUnits="userSpaceOnUse" x1="92.2374" y1="297.2274" x2="92.837" y2="211.6598" gradientTransform="matrix(1 0 0 -1 0 389.8898)">
	<stop  offset="0" style="stop-color:#835FA9"/>
	<stop  offset="1" style="stop-color:#8758A4"/>
</linearGradient>
<path class="st1" d="M69.8,247l-23,13.3V103.9l68.9-39.8l23,13.3l-68.9,39.8V247z"/>
<linearGradient id="SVGID_3_" gradientUnits="userSpaceOnUse" x1="115.0456" y1="77.1428" x2="115.0456" y2="199.2058" gradientTransform="matrix(1 0 0 -1 0 389.8898)">
	<stop  offset="0" style="stop-color:#A559A3"/>
	<stop  offset="1" style="stop-color:#BE5FA5"/>
</linearGradient>
<path class="st2" d="M138.4,106.3l23-13.3v209.4l-69.7,40.2l-23-13.3l69.7-40.2V106.3z"/>
<linearGradient id="SVGID_4_" gradientUnits="userSpaceOnUse" x1="69.9676" y1="102.7877" x2="69.3681" y2="188.3397" gradientTransform="matrix(1 0 0 -1 0 389.8898)">
	<stop  offset="0" style="stop-color:#835FA9"/>
	<stop  offset="1" style="stop-color:#8758A4"/>
</linearGradient>
<path class="st3" d="M92.4,132.8l23-13.3v156.3l-68.9,39.8l-23-13.3l68.9-39.8V132.8z"/>
</svg>
