<?xml version="1.0" standalone="no"?>
<!DOCTYPE svg PUBLIC "-//W3C//DTD SVG 20010904//EN"
 "http://www.w3.org/TR/2001/REC-SVG-20010904/DTD/svg10.dtd">
<svg version="1.0" xmlns="http://www.w3.org/2000/svg"
 width="427.000000pt" height="458.000000pt" viewBox="0 0 427.000000 458.000000"
 preserveAspectRatio="xMidYMid meet">

<g transform="translate(0.000000,458.000000) scale(0.100000,-0.100000)"
fill="#000000" stroke="none">
<path d="M915 4250 c-78 -11 -222 -58 -300 -97 -274 -138 -472 -377 -559 -676
-45 -155 -48 -233 -44 -1307 4 -973 5 -1008 25 -1095 94 -409 393 -717 798
-822 l110 -28 1100 0 1100 0 96 27 c202 55 346 137 493 278 146 140 233 291
294 507 l27 98 0 1110 0 1110 -28 100 c-108 384 -370 649 -762 772 l-90 28
-1105 1 c-608 1 -1127 -2 -1155 -6z m2094 -1005 c16 -8 31 -22 35 -30 3 -9 6
-349 6 -756 l0 -739 -125 0 c-121 0 -125 1 -141 25 -20 31 -91 65 -135 65 -78
-1 -148 -55 -171 -132 -22 -74 20 -165 94 -204 60 -31 167 -9 207 42 18 23 24
24 145 24 l126 0 0 -124 c0 -68 -3 -132 -6 -141 -17 -44 -33 -45 -609 -45
l-545 0 0 114 0 114 410 438 409 439 1 128 0 128 35 34 c68 69 70 168 4 240
-111 120 -300 48 -302 -115 -1 -50 29 -113 64 -138 16 -11 19 -26 19 -105 l-1
-92 -409 -439 -410 -438 0 -154 0 -154 -105 0 -105 0 0 203 c0 194 1 203 21
215 27 17 59 88 59 131 0 94 -81 175 -175 175 -159 0 -235 -201 -116 -308 20
-18 21 -28 21 -218 l0 -198 -115 0 c-110 0 -117 1 -140 25 l-25 24 0 586 0
585 154 0 154 0 47 -56 c43 -50 48 -61 50 -108 3 -102 74 -171 176 -171 105 0
175 77 167 185 -7 96 -70 160 -160 160 -41 0 -46 3 -118 85 l-74 85 -198 0
-198 0 0 120 0 120 295 0 294 0 78 -69 c72 -63 79 -72 80 -109 5 -130 146
-208 264 -146 60 31 98 124 79 194 -22 82 -119 151 -191 136 -28 -5 -39 2
-136 89 l-105 95 -329 0 -329 0 0 75 c0 67 3 79 25 100 l24 25 951 0 c815 0
955 -2 979 -15z"/>
</g>
</svg>
