<svg id="Layer_1" data-name="Layer 1" xmlns="http://www.w3.org/2000/svg" xmlns:xlink="http://www.w3.org/1999/xlink" viewBox="0 0 722 740"><defs><style>.cls-1{fill:url(#linear-gradient);}</style><linearGradient id="linear-gradient" x1="360.63" y1="538.52" x2="360.63" y2="191.59" gradientTransform="matrix(1, 0, 0, -1, 0, 739.89)" gradientUnits="userSpaceOnUse"><stop offset="0" stop-color="#e6c35d"/><stop offset="0.39" stop-color="#c38e28"/><stop offset="0.69" stop-color="#f1df89"/><stop offset="1" stop-color="#c58112"/></linearGradient></defs><path d="M567.22,62H154a42,42,0,0,0-42,42V517.22a42,42,0,0,0,42,42H567.22a42,42,0,0,0,42-42V104A42,42,0,0,0,567.22,62Z"/><path class="cls-1" d="M377.8,559.27H367.1V180.64a29.07,29.07,0,0,1,29.07-29.07h82.41A27.93,27.93,0,1,1,506,184.85h0a27.95,27.95,0,0,1-27.41-22.58H396.17a18.37,18.37,0,0,0-18.37,18.37ZM506,139.71a17.19,17.19,0,1,0,12.18,5A17.21,17.21,0,0,0,506,139.71ZM456.21,559.27h-10.7V472.61a23.92,23.92,0,0,1,23.92-23.92h64a15.27,15.27,0,0,0,15.27-15.28V345.1l-.49-.1a27.93,27.93,0,1,1,11.19.08V433.4a25.9,25.9,0,0,1-7.61,18.38,26,26,0,0,1-18.36,7.61h-64a13.21,13.21,0,0,0-13.22,13.22Zm96-224.45h3.62a17.27,17.27,0,0,0,15-13.56,17.23,17.23,0,0,0-13.27-20.42h0a17.23,17.23,0,1,0-7.16,33.7C551,334.66,551.58,334.75,552.17,334.82Zm-228,224.45h-10.7V305.55a5,5,0,0,0-5-5H207c-.06.33-.14.66-.21,1A27.93,27.93,0,1,1,186,268h0a28,28,0,0,1,21,21.87H308.48a15.67,15.67,0,0,1,15.67,15.67ZM179.59,278a17.25,17.25,0,1,0,4,.46h0A17.26,17.26,0,0,0,179.59,278Zm85.58,260.55a28.13,28.13,0,0,1-6.46-.76,27.93,27.93,0,0,1-8.19-50.95,28.16,28.16,0,0,1,9.28-3.64V396.34a9,9,0,0,0-.68-3.53,8.9,8.9,0,0,0-2-3,9,9,0,0,0-6.45-2.68H112v-10.7H250.71a19.77,19.77,0,0,1,19.79,19.9v86.81c.38.07.75.15,1.13.24h0a27.93,27.93,0,0,1-6.46,55.1Zm0-45.16a17.26,17.26,0,1,0,4,.47h0A17.16,17.16,0,0,0,265.14,493.36ZM471.59,401.8a28.35,28.35,0,0,1-4.09-.3,27.93,27.93,0,0,1-1.35-55V274.53a26,26,0,0,1,26-26H609.26v10.7H492.12a15.27,15.27,0,0,0-15.27,15.28v71.93a27.93,27.93,0,0,1-5.26,55.34Zm-5.44-44.3a17.32,17.32,0,0,0-4.91,2.56,17.22,17.22,0,1,0,15.61-2.58v.65h-10.7ZM301.26,211.67a27.95,27.95,0,0,1-27.42-22.58H112v-10.7H273.84A27.94,27.94,0,0,1,321,164h0a27.93,27.93,0,0,1-19.75,47.67Zm0-45.15a17.24,17.24,0,1,0,12.18,5h0A17.12,17.12,0,0,0,301.26,166.52Z"/><path d="M179.8,641a38.89,38.89,0,0,1-7.43,2.5A42.33,42.33,0,0,1,163,644.6q-7.83,0-12-3.81t-4.21-11.06V609.29H134.12V631.1q0,11.85,7,18.2t20.25,6.26a47.48,47.48,0,0,0,9.88-1.08,56,56,0,0,0,8.51-2.55v25.84h12.62V609.29H179.8Z"/><polygon points="222.47 659.96 222.47 625.53 210.24 625.53 210.24 677.77 221.49 677.77 250.25 643.33 250.25 677.77 262.48 677.77 262.48 625.53 251.33 625.53 222.47 659.96"/><polygon points="278.93 677.77 291.16 677.77 291.16 635.9 316.88 635.9 316.88 677.77 329.01 677.77 329.01 625.53 278.93 625.53 278.93 677.77"/><path d="M361.46,626.21a23.63,23.63,0,0,1,7.73-5,27,27,0,0,1,9.88-1.76,24.56,24.56,0,0,1,18.29,8l8.22-7.72a29.92,29.92,0,0,0-11.74-8.51,41.56,41.56,0,0,0-29.93-.3,34.31,34.31,0,0,0-11.65,7.34,32.63,32.63,0,0,0-7.72,11.15,37.57,37.57,0,0,0,0,28.17,34.17,34.17,0,0,0,7.63,11.25,36.27,36.27,0,0,0,11.64,7.34,40.9,40.9,0,0,0,14.57,2.54,39.27,39.27,0,0,0,15.46-2.93,31.37,31.37,0,0,0,11.74-8.51l-8.22-7.83a25,25,0,0,1-8.31,6.17,25.34,25.34,0,0,1-10,2,26.75,26.75,0,0,1-9.88-1.76,22.6,22.6,0,0,1-12.82-12.62,27.53,27.53,0,0,1,0-19.37A23.9,23.9,0,0,1,361.46,626.21Z"/><path d="M446.17,628.27a30.54,30.54,0,0,0-14.87-3.52,34.53,34.53,0,0,0-12.91,2.34,25.64,25.64,0,0,0-9.79,6.75l7,6.85a21.29,21.29,0,0,1,6.84-4.69,21.63,21.63,0,0,1,8.32-1.57,18.66,18.66,0,0,1,9.29,2.25,16.19,16.19,0,0,1,6.36,6.06,15.24,15.24,0,0,1,1.78,4.21H424.16v8.81h24.2a15.94,15.94,0,0,1-1.9,4.79,16.87,16.87,0,0,1-6.36,6.16,19.28,19.28,0,0,1-9.29,2.15,21.81,21.81,0,0,1-8.32-1.56,22.16,22.16,0,0,1-6.84-4.6l-7,6.85a25.64,25.64,0,0,0,9.79,6.75,34.53,34.53,0,0,0,12.91,2.35,31.19,31.19,0,0,0,14.87-3.43,25.94,25.94,0,0,0,13.89-23.57,25.67,25.67,0,0,0-13.89-23.38Z"/><path d="M475.53,645.68c-.13,2.67-.32,5.35-.58,8a38,38,0,0,1-1.18,7.14,11.61,11.61,0,0,1-2.44,5,6,6,0,0,1-4.7,1.86,6.19,6.19,0,0,1-1.08-.1l-1.27-.19-.58,10.27c1.24.32,2.41.59,3.52.78a19.23,19.23,0,0,0,3.23.29A11.38,11.38,0,0,0,478,676.3a15.57,15.57,0,0,0,4.69-6.85,42.61,42.61,0,0,0,2.55-10.27,125.21,125.21,0,0,0,1.17-12.91l.52-10.37h19.54v41.87h12.22V625.53H476.41Z"/><path d="M540.23,625.53l-.88,20.15c-.13,2.67-.33,5.35-.59,8a38.85,38.85,0,0,1-1.17,7.14,11.62,11.62,0,0,1-2.45,5,6,6,0,0,1-4.69,1.86,6.11,6.11,0,0,1-1.08-.1l-1.27-.19-.59,10.27c1.24.32,2.41.59,3.52.78a19.32,19.32,0,0,0,3.23.29,11.34,11.34,0,0,0,7.53-2.44,15.66,15.66,0,0,0,4.7-6.85A43.09,43.09,0,0,0,549,659.18a125.1,125.1,0,0,0,1.18-12.91l.51-10.37h19.54v41.87h12.23V625.53Z"/></svg>