<?xml version="1.0" encoding="utf-8"?>
<!-- Generator: Adobe Illustrator 25.0.0, SVG Export Plug-In . SVG Version: 6.00 Build 0)  -->
<svg version="1.1" id="Layer_1" xmlns="http://www.w3.org/2000/svg" xmlns:xlink="http://www.w3.org/1999/xlink" x="0px" y="0px"
	 viewBox="0 0 736 163" style="enable-background:new 0 0 736 163;" xml:space="preserve">
<style type="text/css">
	.st0{fill:#1A3A5C;}
	.st1{fill-rule:evenodd;clip-rule:evenodd;fill:url(#SVGID_1_);}
</style>
<g>
	<polygon class="st0" points="199.3,103 199.3,41.1 180.3,41.1 180.3,138.9 199.3,138.9 229.6,77.8 229.6,138.9 248.6,138.9 
		248.6,41.1 229.9,41.1 	"/>
	<polygon class="st0" points="313.3,80.8 284,80.8 284,41.1 264.4,41.1 264.4,138.9 284,138.9 284,97 313.3,97 313.3,138.9 
		332.8,138.9 332.8,41.1 313.3,41.1 	"/>
	<path class="st0" d="M420.2,41.1H406h-5.4h-16.9h-17.3h-2.4l-2.4,40c-0.4,7-1,13-1.7,17.8c-0.7,4.8-1.5,8.8-2.5,11.9
		c-0.9,3.1-2,5.6-3.1,7.5c-1.1,1.8-2.2,3.3-3.4,4.4h-3.8h-2.8l1.1,40.3h18.5v-24.1h36.5h10V163h18l1.7-40.3h-10.2V41.1z
		 M400.6,122.7h-28.5c0.2-0.3,0.3-0.6,0.5-0.9c1.4-2.8,2.7-6.1,3.9-9.9c1.2-3.8,2.2-8.2,3-13.2c0.8-5.1,1.5-10.9,1.8-17.5l1.4-23.7
		h17.8V122.7z"/>
	<path class="st0" d="M505.7,73.4c0-6.3-1.3-11.8-3.8-16.7c-2.5-4.9-6.1-8.7-10.9-11.5c-4.7-2.8-10.4-4.2-17-4.2h-33.3v97.8h19.6
		v-34.5H474c6.6,0,12.2-1.3,17-3.8c4.7-2.6,8.4-6.1,10.9-10.7C504.4,85.2,505.7,79.8,505.7,73.4z M484.6,81.1
		c-0.8,2.2-2.1,3.9-3.9,5.2c-1.7,1.3-4,1.9-6.8,1.9h-13.7V57.5H474c2.8,0,5.1,0.8,6.8,2.3c1.7,1.5,3,3.5,3.8,6
		c0.9,2.4,1.3,5,1.3,7.9C485.9,76.4,485.5,78.9,484.6,81.1z"/>
	<path class="st0" d="M544,41.1h-8.3h-4.7l-30.6,97.8h20.8l5.3-20.2h27l5.3,20.2h20.9l-30.8-97.8H544z M530.8,102.5l9.2-35.2
		l9.3,35.2H530.8z"/>
	<path class="st0" d="M605.7,29.7c4.2,3.7,9.8,5.6,17,5.6c4.7,0,8.8-0.9,12.3-2.6c3.5-1.7,6.2-4,8.1-7c1.9-3,2.9-6.5,2.9-10.4h-13.8
		c0,2.3-0.7,4.4-2.2,6.2c-1.4,1.8-3.8,2.7-7.3,2.7c-3.5,0-6-0.9-7.4-2.7c-1.4-1.8-2.1-3.9-2.1-6.2h-13.7
		C599.5,21.2,601.5,26,605.7,29.7z"/>
	<polygon class="st0" points="607.5,103 607.5,41.1 588.4,41.1 588.4,138.9 607.4,138.9 637.7,77.8 637.7,138.9 656.8,138.9 
		656.8,41.1 638.1,41.1 	"/>
	<path class="st0" d="M733.3,99.2c-1.3-3.5-3.6-6.3-6.7-8.5c-1.4-1-3-1.7-4.8-2.2c0.7-0.3,1.5-0.7,2.1-1.1c3.4-2.1,6-4.9,7.6-8.3
		c1.6-3.4,2.4-7.1,2.4-11.2c0-4.6-0.7-8.5-2.1-11.9c-1.4-3.4-3.4-6.1-6.1-8.3c-2.7-2.2-6-3.8-9.8-4.9c-3.9-1.1-8.2-1.6-13.1-1.6
		h-30.2v97.8h7.4h12.3h12.6c6.6,0,12.1-1.1,16.7-3.2c4.5-2.2,7.9-5.4,10.3-9.7c2.4-4.3,3.6-9.6,3.6-15.9
		C735.4,106.3,734.7,102.6,733.3,99.2z M692.2,57.5h10.5c2.7,0,4.9,0.4,6.7,1.3c1.7,0.9,2.9,2.2,3.7,4c0.8,1.8,1.1,4.2,1.1,7.2
		c0,2.6-0.4,4.8-1.3,6.7c-0.8,1.8-2.1,3.2-3.8,4.1c-1.7,0.9-3.9,1.3-6.6,1.3h-10.3V57.5z M714.7,116.5c-0.7,1.9-1.9,3.4-3.5,4.5
		c-1.6,1.1-3.7,1.7-6.3,1.7h-12.6V96.3h13.3h0.1c2.5,0,4.5,0.6,6,1.7c1.5,1.1,2.5,2.6,3.2,4.7c0.7,2.1,1,4.5,1,7.3
		C715.7,112.4,715.4,114.6,714.7,116.5z"/>
</g>
<linearGradient id="SVGID_1_" gradientUnits="userSpaceOnUse" x1="15.6418" y1="158.6481" x2="146.1701" y2="21.0652" gradientTransform="matrix(1 0 0 -1 0 163.8898)">
	<stop  offset="0" style="stop-color:#B59455"/>
	<stop  offset="0.401" style="stop-color:#654521"/>
	<stop  offset="0.6042" style="stop-color:#D9A967"/>
	<stop  offset="0.7396" style="stop-color:#A4723C"/>
	<stop  offset="0.9792" style="stop-color:#A4723C"/>
</linearGradient>
<path class="st1" d="M2.7,5.2h5c0.3,0,0.7,0,1-0.2C9,4.9,9.3,4.7,9.5,4.4c0.2-0.2,0.4-0.5,0.6-0.8c0.1-0.3,0.2-0.7,0.2-1
	c0-0.3-0.1-0.7-0.2-1C10,1.3,9.8,1,9.5,0.7C9.3,0.5,9,0.3,8.7,0.2C8.4,0.1,8,0,7.7,0h-5c-0.3,0-0.7,0-1,0.2C1.3,0.3,1,0.5,0.8,0.7
	C0.5,1,0.3,1.3,0.2,1.6S0,2.2,0,2.6c0,0.3,0.1,0.7,0.2,1s0.3,0.6,0.6,0.8C1,4.7,1.3,4.9,1.7,5C2,5.1,2.3,5.2,2.7,5.2z M15.9,5.2h5
	c0.7,0,1.3-0.3,1.8-0.8c0.5-0.5,0.7-1.1,0.7-1.8c0-0.7-0.3-1.3-0.7-1.8C22.2,0.3,21.6,0,20.9,0h-5c-0.7,0-1.3,0.3-1.8,0.8
	c-0.5,0.5-0.7,1.1-0.7,1.8c0,0.7,0.3,1.3,0.7,1.8C14.6,4.9,15.2,5.1,15.9,5.2z M17.9,13.9H10c-0.3,0-0.7,0-1-0.2
	c-0.3-0.1-0.6-0.3-0.9-0.6c-0.2-0.2-0.4-0.5-0.6-0.8c-0.1-0.3-0.2-0.7-0.2-1c0-0.3,0.1-0.7,0.2-1C7.7,10,7.9,9.7,8.2,9.4
	C8.4,9.2,8.7,9,9,8.9c0.3-0.1,0.7-0.2,1-0.2h7.8c0.7,0,1.3,0.3,1.8,0.8c0.5,0.5,0.7,1.1,0.7,1.8c0,0.7-0.3,1.3-0.7,1.8
	C19.2,13.6,18.6,13.8,17.9,13.9z M118.3,31.7l-0.1,58.6l-31.3,0L87,31.7c0-0.1-0.1-0.2-0.2-0.3c0,0,0-0.1-0.1-0.1c0,0,0,0,0,0
	l-43.7,0h-22c-0.7,0-1.3-0.3-1.8-0.8c-0.5-0.5-0.8-1.1-0.8-1.8c0-0.7,0.3-1.3,0.8-1.8s1.1-0.8,1.8-0.8h55.3c0.5,0,0.9-0.2,1.3-0.5
	c0.3-0.3,0.5-0.8,0.5-1.3c0-0.5-0.2-0.9-0.5-1.3c-0.3-0.3-0.8-0.5-1.3-0.5H10c-0.3,0-0.7,0-1-0.2c-0.3-0.1-0.6-0.3-0.9-0.6
	c-0.2-0.2-0.4-0.5-0.6-0.8c-0.1-0.3-0.2-0.7-0.2-1s0.1-0.7,0.2-1c0.1-0.3,0.3-0.6,0.6-0.8c0.2-0.2,0.5-0.4,0.9-0.6s0.7-0.2,1-0.2
	h48.5c0.5,0,0.9-0.2,1.3-0.5c0.3-0.3,0.5-0.8,0.5-1.3c0-0.5-0.2-0.9-0.5-1.3c-0.3-0.3-0.8-0.5-1.3-0.5H27.2c-0.3,0-0.7,0-1-0.2
	c-0.3-0.1-0.6-0.3-0.9-0.6c-0.2-0.2-0.4-0.5-0.6-0.8c-0.1-0.3-0.2-0.7-0.2-1s0.1-0.7,0.2-1c0.1-0.3,0.3-0.6,0.6-0.8
	c0.2-0.2,0.5-0.4,0.9-0.6s0.7-0.2,1-0.2h40.7c0.5,0,0.9-0.2,1.3-0.5c0.3-0.3,0.5-0.8,0.5-1.3c0-0.5-0.2-0.9-0.5-1.3
	c-0.3-0.3-0.8-0.5-1.3-0.5H29.2c-0.7,0-1.3-0.3-1.8-0.8c-0.5-0.5-0.7-1.1-0.7-1.8s0.3-1.3,0.7-1.8C27.9,0.3,28.5,0,29.2,0h1.6l56,0
	c4.2,0,8.3,0.8,12.1,2.4c3.8,1.6,7.3,3.9,10.3,6.9c2.9,2.9,5.3,6.4,6.8,10.3C117.5,23.4,118.3,27.6,118.3,31.7z M149.2,132.4h-5
	c-0.3,0-0.7,0-1,0.2c-0.3,0.1-0.6,0.3-0.9,0.6c-0.2,0.2-0.4,0.5-0.6,0.8c-0.1,0.3-0.2,0.7-0.2,1c0,0.3,0.1,0.7,0.2,1
	c0.1,0.3,0.3,0.6,0.6,0.8c0.2,0.2,0.5,0.4,0.9,0.6c0.3,0.1,0.7,0.2,1,0.2h5c0.3,0,0.7,0,1-0.2c0.3-0.1,0.6-0.3,0.9-0.6
	c0.2-0.2,0.4-0.5,0.6-0.8c0.1-0.3,0.2-0.7,0.2-1c0-0.3-0.1-0.7-0.2-1c-0.1-0.3-0.3-0.6-0.6-0.8c-0.2-0.2-0.5-0.4-0.9-0.6
	C149.9,132.5,149.5,132.4,149.2,132.4z M136,132.4h-5c-0.7,0-1.3,0.3-1.8,0.8c-0.5,0.5-0.7,1.1-0.7,1.8c0,0.7,0.3,1.3,0.7,1.8
	c0.5,0.5,1.1,0.8,1.8,0.8h5c0.7,0,1.3-0.3,1.8-0.8c0.5-0.5,0.7-1.1,0.7-1.8c0-0.7-0.3-1.3-0.7-1.8
	C137.3,132.7,136.6,132.5,136,132.4z M134,123.7h7.8c0.3,0,0.7,0,1,0.2c0.3,0.1,0.6,0.3,0.9,0.6c0.2,0.2,0.4,0.5,0.6,0.8
	c0.1,0.3,0.2,0.7,0.2,1s-0.1,0.7-0.2,1c-0.1,0.3-0.3,0.6-0.6,0.8c-0.2,0.2-0.5,0.4-0.9,0.6c-0.3,0.1-0.7,0.2-1,0.2H134
	c-0.3,0-0.7,0-1-0.2c-0.3-0.1-0.6-0.3-0.9-0.6c-0.2-0.2-0.4-0.5-0.6-0.8c-0.1-0.3-0.2-0.7-0.2-1s0.1-0.7,0.2-1
	c0.1-0.3,0.3-0.6,0.6-0.8c0.2-0.2,0.5-0.4,0.9-0.6C133.3,123.8,133.6,123.7,134,123.7z M33.6,105.9l0.1-58.6l31.3,0l-0.1,58.6
	c0,0.1,0.1,0.2,0.2,0.3c0,0,0,0.1,0.1,0.1c0,0,0,0,0,0l43.7,0h22c0.7,0,1.3,0.3,1.8,0.8c0.5,0.5,0.7,1.1,0.7,1.8
	c0,0.7-0.3,1.3-0.7,1.8c-0.5,0.5-1.1,0.8-1.8,0.8H75.5c-0.5,0-0.9,0.2-1.3,0.5c-0.3,0.3-0.5,0.8-0.5,1.3c0,0.5,0.2,0.9,0.5,1.3
	s0.8,0.5,1.3,0.5h66.3c0.7,0,1.3,0.3,1.8,0.8c0.5,0.5,0.8,1.1,0.8,1.8c0,0.7-0.3,1.3-0.8,1.8c-0.5,0.5-1.1,0.8-1.8,0.8H93.4
	c-0.5,0-0.9,0.2-1.3,0.5c-0.3,0.3-0.5,0.8-0.5,1.3c0,0.5,0.2,0.9,0.5,1.3c0.3,0.3,0.8,0.5,1.3,0.5h31.3c0.7,0,1.3,0.3,1.8,0.8
	c0.5,0.5,0.7,1.1,0.7,1.8c0,0.7-0.3,1.3-0.7,1.8c-0.5,0.5-1.1,0.8-1.8,0.8H84c-0.5,0-0.9,0.2-1.3,0.5c-0.3,0.3-0.5,0.8-0.5,1.3
	c0,0.5,0.2,0.9,0.5,1.3s0.8,0.5,1.3,0.5h38.7c0.7,0,1.3,0.3,1.8,0.8c0.5,0.5,0.7,1.1,0.7,1.8c0,0.7-0.3,1.3-0.7,1.8
	c-0.5,0.5-1.1,0.8-1.8,0.8h-1.6l-56,0c-4.2,0-8.3-0.8-12.1-2.4c-3.8-1.6-7.3-3.9-10.3-6.9c-2.9-2.9-5.3-6.4-6.8-10.3
	C34.4,114.1,33.6,110,33.6,105.9z"/>
</svg>
