<svg id="Layer_1" data-name="Layer 1" xmlns="http://www.w3.org/2000/svg" xmlns:xlink="http://www.w3.org/1999/xlink" viewBox="0 0 838 807"><defs><style>.cls-1{fill:#0d7db5;}.cls-2{fill:url(#radial-gradient);}.cls-3{fill:url(#radial-gradient-2);}.cls-4{fill:#fff;}</style><radialGradient id="radial-gradient" cx="120.86" cy="824.71" r="1" gradientTransform="matrix(379.66, 379.66, 379.66, -379.66, -358547.49, 267269.3)" gradientUnits="userSpaceOnUse"><stop offset="0.08" stop-color="#7edc07"/><stop offset="1" stop-color="#0f68b7"/></radialGradient><radialGradient id="radial-gradient-2" cx="120.64" cy="824.84" r="1" gradientTransform="matrix(337.83, 0, 0, -337.83, -40225.65, 279069.78)" gradientUnits="userSpaceOnUse"><stop offset="0.08" stop-color="#76bf19"/><stop offset="1" stop-color="#0373d8"/></radialGradient></defs><path class="cls-1" d="M280.34,753.29V671.05H330v8.83H290.3v27.79h37.1v8.84H290.3v28h40.31v8.83Z"/><path class="cls-1" d="M382,707.75v8.84H346v-8.84Z"/><path class="cls-1" d="M387,679.88v-8.83h61.69v8.83H422.86v73.41h-10V679.88Z"/><path class="cls-1" d="M465.88,739.32l29.72-47.71h10.92v61.68h-9.47V705.58l-29.56,47.71H456.41V691.61h9.47Z"/><path class="cls-1" d="M557.61,740.44l21.53-48.83h9l-26.66,61.68h-7.71l-26.18-61.68h8.83Zm-24.25-48.83v61.68h-9.48V691.61Zm48.51,61.68V691.61h9.47v61.68Z"/><path class="cls-2" d="M696.87,289.49,484,76.64a66.33,66.33,0,0,0-93.8,0L177.36,289.49a66.33,66.33,0,0,0,0,93.8L390.21,596.15a66.33,66.33,0,0,0,93.8,0L696.87,383.29A66.33,66.33,0,0,0,696.87,289.49Z"/><path class="cls-3" d="M389.58,171.35l-118,118a66.5,66.5,0,0,0,0,94l118,118a66.5,66.5,0,0,0,94,0l118-118a66.5,66.5,0,0,0,0-94l-118-118A66.5,66.5,0,0,0,389.58,171.35Z"/><path class="cls-4" d="M616,465l23.16-23.16-40.2-40.21,10.45-10.45a77.5,77.5,0,0,0,0-109.47L598.9,271.2,639.1,231l-23.16-23.16L575.74,248l-13.8-13.8L602.15,194,579,170.88l-40.21,40.2L525,197.29l40.2-40.21L542,133.92l-40.2,40.21-10.5-10.5a77.5,77.5,0,0,0-109.47,0l-10.45,10.45-39.69-39.69-23.16,23.16,39.69,39.69-13.82,13.82-39.69-39.69-23.16,23.16,39.69,39.69L297.48,248l-39.7-39.68-23.16,23.16,39.7,39.68-10.49,10.49a77.5,77.5,0,0,0,0,109.47l10.5,10.5-39.69,39.68,23.16,23.16,39.69-39.68,13.79,13.79-39.69,39.69,23.16,23.16,39.69-39.69,13.8,13.8-39.69,39.68,23.16,23.16L371.4,498.7l10.46,10.46a77.41,77.41,0,0,0,109.47,0l10.5-10.51L542,538.85l23.16-23.16L525,475.5l13.8-13.8L579,501.9l23.16-23.16L562,438.54l13.8-13.8ZM475.89,493.72a55.56,55.56,0,0,1-78.59,0l-118-118a55.63,55.63,0,0,1,0-78.59l118-118h0a55.63,55.63,0,0,1,78.59,0l118,118a55.65,55.65,0,0,1,0,78.59Z"/></svg>