<?xml version="1.0" encoding="UTF-8"?>
<svg xmlns="http://www.w3.org/2000/svg" xmlns:xlink="http://www.w3.org/1999/xlink" width="140px" height="148px" viewBox="0 0 140 148" version="1.1">
<defs>
<linearGradient id="linear0" gradientUnits="userSpaceOnUse" x1="384.006" y1="65.7119" x2="384.006" y2="742.247" gradientTransform="matrix(0.180879,0,0,0.180708,0,0)">
<stop offset="0" style="stop-color:rgb(0%,36.862745%,80.784314%);stop-opacity:1;"/>
<stop offset="1" style="stop-color:rgb(1.176471%,67.058824%,99.215686%);stop-opacity:1;"/>
</linearGradient>
<linearGradient id="linear1" gradientUnits="userSpaceOnUse" x1="384.006" y1="65.7119" x2="384.006" y2="742.247" gradientTransform="matrix(0.180879,0,0,0.180708,0,0)">
<stop offset="0" style="stop-color:rgb(0%,36.862745%,80.784314%);stop-opacity:1;"/>
<stop offset="1" style="stop-color:rgb(1.176471%,67.058824%,99.215686%);stop-opacity:1;"/>
</linearGradient>
<linearGradient id="linear2" gradientUnits="userSpaceOnUse" x1="384.006" y1="65.7119" x2="384.006" y2="742.247" gradientTransform="matrix(0.180879,0,0,0.180708,0,0)">
<stop offset="0" style="stop-color:rgb(0%,36.862745%,80.784314%);stop-opacity:1;"/>
<stop offset="1" style="stop-color:rgb(1.176471%,67.058824%,99.215686%);stop-opacity:1;"/>
</linearGradient>
<clipPath id="clip1">
  <path d="M 52 34.425781 L 86 34.425781 L 86 111.585938 L 52 111.585938 Z M 52 34.425781 "/>
</clipPath>
</defs>
<g id="surface1">
<path style="fill:none;stroke-width:30;stroke-linecap:round;stroke-linejoin:round;stroke:rgb(9.803922%,41.568627%,87.45098%);stroke-opacity:1;stroke-miterlimit:10;" d="M 638.33404 146.429107 L 123.183482 146.429107 L 123.183482 661.568175 L 638.33404 661.568175 Z M 638.33404 146.429107 " transform="matrix(0.180879,0,0,0.180708,0,0)"/>
<path style="fill:none;stroke-width:30;stroke-linecap:round;stroke-linejoin:round;stroke:rgb(9.803922%,41.568627%,87.45098%);stroke-opacity:1;stroke-miterlimit:10;" d="M 205.140234 52.765493 L 205.140234 146.429107 " transform="matrix(0.180879,0,0,0.180708,0,0)"/>
<path style="fill:none;stroke-width:30;stroke-linecap:round;stroke-linejoin:round;stroke:rgb(9.803922%,41.568627%,87.45098%);stroke-opacity:1;stroke-miterlimit:10;" d="M 205.140234 661.568175 L 205.140234 755.231788 " transform="matrix(0.180879,0,0,0.180708,0,0)"/>
<path style="fill:none;stroke-width:30;stroke-linecap:round;stroke-linejoin:round;stroke:rgb(9.803922%,41.568627%,87.45098%);stroke-opacity:1;stroke-miterlimit:10;" d="M 439.305469 52.765493 L 439.305469 146.429107 " transform="matrix(0.180879,0,0,0.180708,0,0)"/>
<path style="fill:none;stroke-width:30;stroke-linecap:round;stroke-linejoin:round;stroke:rgb(9.803922%,41.568627%,87.45098%);stroke-opacity:1;stroke-miterlimit:10;" d="M 439.305469 661.568175 L 439.305469 755.231788 " transform="matrix(0.180879,0,0,0.180708,0,0)"/>
<path style="fill:none;stroke-width:30;stroke-linecap:round;stroke-linejoin:round;stroke:rgb(9.803922%,41.568627%,87.45098%);stroke-opacity:1;stroke-miterlimit:10;" d="M 322.23365 52.765493 L 322.23365 146.429107 " transform="matrix(0.180879,0,0,0.180708,0,0)"/>
<path style="fill:none;stroke-width:30;stroke-linecap:round;stroke-linejoin:round;stroke:rgb(9.803922%,41.568627%,87.45098%);stroke-opacity:1;stroke-miterlimit:10;" d="M 322.23365 661.568175 L 322.23365 755.231788 " transform="matrix(0.180879,0,0,0.180708,0,0)"/>
<path style="fill:none;stroke-width:30;stroke-linecap:round;stroke-linejoin:round;stroke:rgb(9.803922%,41.568627%,87.45098%);stroke-opacity:1;stroke-miterlimit:10;" d="M 556.377288 52.765493 L 556.377288 146.429107 " transform="matrix(0.180879,0,0,0.180708,0,0)"/>
<path style="fill:none;stroke-width:30;stroke-linecap:round;stroke-linejoin:round;stroke:rgb(9.803922%,41.568627%,87.45098%);stroke-opacity:1;stroke-miterlimit:10;" d="M 556.377288 661.568175 L 556.377288 755.231788 " transform="matrix(0.180879,0,0,0.180708,0,0)"/>
<path style="fill:none;stroke-width:30;stroke-linecap:round;stroke-linejoin:round;stroke:rgb(9.803922%,41.568627%,87.45098%);stroke-opacity:1;stroke-miterlimit:10;" d="M 731.995815 228.376663 L 638.33404 228.376663 " transform="matrix(0.180879,0,0,0.180708,0,0)"/>
<path style="fill:none;stroke-width:30;stroke-linecap:round;stroke-linejoin:round;stroke:rgb(9.803922%,41.568627%,87.45098%);stroke-opacity:1;stroke-miterlimit:10;" d="M 123.183482 228.376663 L 29.521708 228.376663 " transform="matrix(0.180879,0,0,0.180708,0,0)"/>
<path style="fill:none;stroke-width:30;stroke-linecap:round;stroke-linejoin:round;stroke:rgb(9.803922%,41.568627%,87.45098%);stroke-opacity:1;stroke-miterlimit:10;" d="M 731.995815 462.546505 L 638.33404 462.546505 " transform="matrix(0.180879,0,0,0.180708,0,0)"/>
<path style="fill:none;stroke-width:30;stroke-linecap:round;stroke-linejoin:round;stroke:rgb(9.803922%,41.568627%,87.45098%);stroke-opacity:1;stroke-miterlimit:10;" d="M 123.183482 462.546505 L 29.521708 462.546505 " transform="matrix(0.180879,0,0,0.180708,0,0)"/>
<path style="fill:none;stroke-width:30;stroke-linecap:round;stroke-linejoin:round;stroke:rgb(9.803922%,41.568627%,87.45098%);stroke-opacity:1;stroke-miterlimit:10;" d="M 731.995815 345.450776 L 638.33404 345.450776 " transform="matrix(0.180879,0,0,0.180708,0,0)"/>
<path style="fill:none;stroke-width:30;stroke-linecap:round;stroke-linejoin:round;stroke:rgb(9.803922%,41.568627%,87.45098%);stroke-opacity:1;stroke-miterlimit:10;" d="M 123.183482 345.450776 L 29.521708 345.450776 " transform="matrix(0.180879,0,0,0.180708,0,0)"/>
<path style="fill:none;stroke-width:30;stroke-linecap:round;stroke-linejoin:round;stroke:rgb(9.803922%,41.568627%,87.45098%);stroke-opacity:1;stroke-miterlimit:10;" d="M 731.995815 579.620619 L 638.33404 579.620619 " transform="matrix(0.180879,0,0,0.180708,0,0)"/>
<path style="fill:none;stroke-width:30;stroke-linecap:round;stroke-linejoin:round;stroke:rgb(9.803922%,41.568627%,87.45098%);stroke-opacity:1;stroke-miterlimit:10;" d="M 123.183482 579.620619 L 29.521708 579.620619 " transform="matrix(0.180879,0,0,0.180708,0,0)"/>
<path style=" stroke:none;fill-rule:nonzero;fill:rgb(0%,0%,0%);fill-opacity:1;" d="M 69.457031 65.320312 C 65.226562 65.320312 61.78125 68.769531 61.78125 73.007812 C 61.78125 77.246094 65.226562 80.691406 69.457031 80.691406 C 73.691406 80.691406 77.132812 77.246094 77.132812 73.007812 C 77.132812 68.769531 73.691406 65.320312 69.457031 65.320312 Z M 69.457031 65.320312 "/>
<path style=" stroke:none;fill-rule:nonzero;fill:rgb(0%,0%,0%);fill-opacity:1;" d="M 43.4375 82.457031 C 43.4375 79.796875 41.277344 77.632812 38.621094 77.632812 C 35.964844 77.632812 33.804688 79.796875 33.804688 82.457031 C 33.804688 85.117188 35.964844 87.28125 38.621094 87.28125 C 41.277344 87.28125 43.4375 85.117188 43.4375 82.457031 Z M 43.4375 82.457031 "/>
<path style=" stroke:none;fill-rule:nonzero;fill:rgb(0%,0%,0%);fill-opacity:1;" d="M 93.042969 90.210938 C 90.386719 90.210938 88.226562 92.375 88.226562 95.035156 C 88.226562 97.695312 90.386719 99.855469 93.042969 99.855469 C 95.695312 99.855469 97.859375 97.695312 97.859375 95.035156 C 97.859375 92.375 95.695312 90.210938 93.042969 90.210938 Z M 93.042969 90.210938 "/>
<path style=" stroke:none;fill-rule:nonzero;fill:rgb(0%,0%,0%);fill-opacity:1;" d="M 76.710938 46.351562 C 79.367188 46.351562 81.527344 44.1875 81.527344 41.527344 C 81.527344 38.871094 79.367188 36.707031 76.710938 36.707031 C 74.054688 36.707031 71.894531 38.871094 71.894531 41.527344 C 71.894531 44.1875 74.054688 46.351562 76.710938 46.351562 Z M 76.710938 46.351562 "/>
<path style=" stroke:none;fill-rule:nonzero;fill:rgb(0%,0%,0%);fill-opacity:1;" d="M 93.042969 90.210938 C 90.386719 90.210938 88.226562 92.375 88.226562 95.035156 C 88.226562 97.695312 90.386719 99.855469 93.042969 99.855469 C 95.695312 99.855469 97.859375 97.695312 97.859375 95.035156 C 97.859375 92.375 95.695312 90.210938 93.042969 90.210938 Z M 93.042969 90.210938 "/>
<path style=" stroke:none;fill-rule:evenodd;fill:url(#linear0);" d="M 80.730469 85.804688 C 80.734375 85.792969 80.734375 85.785156 80.738281 85.777344 C 80.738281 85.777344 83.378906 84.386719 85.726562 82.421875 C 85.71875 82.5625 85.707031 82.703125 85.699219 82.839844 C 85.714844 82.703125 85.730469 82.5625 85.742188 82.421875 C 88.480469 80.433594 91.003906 78.355469 93.242188 76.234375 C 93.875 76.941406 94.464844 77.644531 95.019531 78.347656 C 98.039062 82.191406 99.582031 85.714844 99.425781 88.226562 C 100.820312 89.539062 101.8125 91.277344 102.195312 93.230469 C 102.425781 92.933594 102.636719 92.621094 102.824219 92.296875 C 105.253906 88.082031 103.742188 82.136719 98.566406 75.550781 C 97.898438 74.703125 97.179688 73.851562 96.410156 73.007812 C 97.179688 72.160156 97.898438 71.308594 98.566406 70.460938 C 103.742188 63.875 105.253906 57.929688 102.824219 53.714844 C 100.394531 49.503906 94.496094 47.839844 86.214844 49.035156 C 81.078125 49.777344 75.320312 51.558594 69.460938 54.175781 C 66.375 52.796875 63.320312 51.652344 60.367188 50.765625 C 59.933594 52.136719 59.539062 53.59375 59.1875 55.128906 C 64.429688 56.707031 70.054688 59.1875 75.582031 62.382812 C 81.125 65.585938 86.09375 69.238281 90.085938 73.007812 C 86.09375 76.773438 81.125 80.425781 75.582031 83.628906 C 70.101562 86.796875 64.523438 89.261719 59.320312 90.84375 C 59.703125 92.378906 60.132812 93.828125 60.589844 95.179688 C 66.144531 93.492188 72.058594 90.886719 77.839844 87.546875 C 78.820312 86.976562 79.785156 86.394531 80.730469 85.804688 Z M 98.914062 55.976562 C 97.511719 53.542969 93.003906 52.621094 86.859375 53.511719 C 83.152344 54.042969 79.078125 55.175781 74.859375 56.816406 C 75.855469 57.34375 76.847656 57.894531 77.839844 58.46875 C 83.703125 61.855469 88.976562 65.742188 93.242188 69.777344 C 93.875 69.074219 94.464844 68.367188 95.019531 67.664062 C 98.859375 62.777344 100.316406 58.40625 98.914062 55.976562 Z M 98.914062 55.976562 "/>
<path style=" stroke:none;fill-rule:nonzero;fill:url(#linear1);" d="M 55.90625 49.613281 C 54.816406 49.378906 53.746094 49.183594 52.703125 49.035156 C 44.421875 47.839844 38.523438 49.503906 36.09375 53.714844 C 33.664062 57.929688 35.175781 63.875 40.347656 70.460938 C 43.554688 74.539062 48 78.734375 53.1875 82.5 C 52.917969 79.960938 52.988281 79.285156 52.808594 76.5 C 49.28125 73.660156 46.210938 70.613281 43.898438 67.664062 C 40.058594 62.777344 38.601562 58.40625 40.003906 55.976562 C 41.40625 53.542969 45.910156 52.621094 52.058594 53.511719 C 52.929688 53.636719 53.824219 53.792969 54.734375 53.984375 C 55.082031 52.460938 55.472656 51 55.90625 49.613281 Z M 55.90625 49.613281 "/>
<path style=" stroke:none;fill-rule:nonzero;fill:url(#linear2);" d="M 56.074219 96.390625 C 55.632812 95.007812 55.1875 93.554688 54.832031 92.03125 C 53.929688 92.21875 52.921875 92.378906 52.058594 92.503906 C 47.238281 93.199219 43.429688 92.78125 41.332031 91.398438 C 40.472656 91.660156 39.566406 91.800781 38.621094 91.800781 C 37.566406 91.800781 36.550781 91.621094 35.605469 91.296875 C 35.746094 91.640625 35.90625 91.972656 36.09375 92.296875 C 38.007812 95.621094 42.078125 97.355469 47.777344 97.355469 C 49.304688 97.355469 50.949219 97.230469 52.703125 96.976562 C 53.746094 96.828125 54.984375 96.625 56.074219 96.390625 Z M 56.074219 96.390625 "/>
<g clip-path="url(#clip1)" clip-rule="nonzero">
<path style=" stroke:none;fill-rule:nonzero;fill:rgb(0%,49.803922%,5.098039%);fill-opacity:1;" d="M 80.859375 85.757812 C 80.164062 89.28125 79.605469 92.6875 77.367188 98.804688 C 75.980469 101.929688 74.546875 104.175781 73.097656 105.5625 C 71.671875 106.925781 70.175781 107.105469 69.363281 107.097656 C 68.550781 107.09375 67.460938 106.511719 66.050781 105.125 C 64.621094 103.71875 63.132812 101.460938 61.785156 98.316406 C 59.171875 92.199219 57.164062 83.269531 57.164062 72.859375 C 57.234375 62.695312 58.988281 53.734375 61.578125 47.402344 C 62.964844 44.277344 64.617188 41.871094 66.066406 40.484375 C 66.613281 39.960938 67.160156 39.671875 67.617188 39.410156 C 68.140625 37.363281 69.070312 35.835938 70.5625 34.503906 C 70.179688 34.441406 70.003906 34.425781 69.617188 34.421875 C 59.222656 34.503906 52.878906 51.539062 52.726562 72.859375 C 52.574219 94.175781 60.070312 111.511719 69.363281 111.582031 C 78.65625 111.648438 84.78125 97.097656 85.726562 82.421875 C 83.378906 84.386719 80.859375 85.757812 80.859375 85.757812 Z M 80.859375 85.757812 "/>
</g>
</g>
</svg>
