<svg version="1.1" xmlns="http://www.w3.org/2000/svg" xmlns:xlink="http://www.w3.org/1999/xlink" width="20" height="20" viewBox="0,0,256,256"><g fill="rgba(57,195,206,1)" fill-rule="nonzero" stroke="none" stroke-width="1" stroke-linecap="butt" stroke-linejoin="miter" stroke-miterlimit="10" stroke-dasharray="" stroke-dashoffset="0" font-family="none" font-weight="none" font-size="none" text-anchor="none" style="mix-blend-mode: normal"><g transform="translate(0,-0.00064) scale(12.8,12.8)"><path d="M10,0c-5.52243,0 -10,4.47757 -10,10c0,5.5224 4.47757,10.0001 10,10.0001c5.5225,0 10,-4.4777 10,-10.0001c0,-5.52243 -4.4775,-10 -10,-10zM15.2807,14.5912l-0.8007,0.8008c-0.1429,0.1428 -0.5615,0.2318 -0.5749,0.2318c-2.533,0.0221 -4.97194,-0.9728 -6.7639,-2.765c-1.79687,-1.7979 -2.79298,-4.24546 -2.76623,-6.787c0,-0.00115 0.09167,-0.40774 0.2345,-0.5492l0.80064,-0.80077c0.29299,-0.29434 0.8558,-0.42736 1.25006,-0.29546l0.16842,0.05618c0.39311,0.13178 0.80584,0.56644 0.91445,0.96688l0.40275,1.47821c0.10862,0.4016 -0.03788,0.97294 -0.33078,1.26593l-0.53462,0.53469c0.52489,1.94314 2.04955,3.46814 3.99301,3.99424l0.5344,-0.5348c0.2944,-0.2943 0.8655,-0.4407 1.2662,-0.3323l1.478,0.4042c0.4006,0.1101 0.8352,0.5202 0.9669,0.9132l0.0562,0.1709c0.1306,0.3931 -0.0014,0.9558 -0.2944,1.2475z"></path></g></g></svg>