<svg version="1.1" xmlns="http://www.w3.org/2000/svg" xmlns:xlink="http://www.w3.org/1999/xlink" width="15" height="20" viewBox="0,0,192,256"><g fill="#000000" fill-rule="nonzero" stroke="none" stroke-width="1" stroke-linecap="butt" stroke-linejoin="miter" stroke-miterlimit="10" stroke-dasharray="" stroke-dashoffset="0" font-family="none" font-weight="none" font-size="none" text-anchor="none" style="mix-blend-mode: normal"><g transform="translate(1.75168,0) scale(12.8,12.8)"><path d="M7.36286,0c-4.05968,0 -7.36286,3.30318 -7.36286,7.36327c0,1.05903 0.21676,2.07017 0.64393,3.00553c1.84092,4.0284 5.37048,8.2815 6.40863,9.4889c0.07778,0.0903 0.19118,0.1423 0.31051,0.1423c0.11933,0 0.23272,-0.052 0.3105,-0.1423c1.03775,-1.2072 4.56733,-5.4601 6.40883,-9.4889c0.4274,-0.93536 0.6439,-1.9465 0.6439,-3.00553c-0.0004,-4.06009 -3.3035,-7.36327 -7.36344,-7.36327zM7.36286,11.1878c-2.10885,0 -3.82471,-1.71588 -3.82471,-3.82473c0,-2.10906 1.71586,-3.82492 3.82471,-3.82492c2.10885,0 3.82474,1.71586 3.82474,3.82492c0.0002,2.10885 -1.71568,3.82473 -3.82474,3.82473z"></path></g></g></svg>